<svg display="none">
	<symbol id="facebook" viewBox="0 0 24 24" xmlns="http://www.w3.org/2000/svg">
			<g>
		<path d="m15.997 3.985h2.191v-3.816c-.378-.052-1.678-.169-3.192-.169-3.159 0-5.323 1.987-5.323 5.639v3.361h-3.486v4.266h3.486v10.734h4.274v-10.733h3.345l.531-4.266h-3.877v-2.939c.001-1.233.333-2.077 2.051-2.077z"/>
	</g>
	</symbol>	

	<symbol id="googleplus" viewBox="0 0 315 315" xmlns="http://www.w3.org/2000/svg">
			<g>
		<path id="XMLID_511_" d="M307.5,136.892h-19.791V117.1c0-4.143-3.357-7.5-7.5-7.5h-26.717c-4.143,0-7.5,3.357-7.5,7.5v19.792
		h-19.791c-4.143,0-7.5,3.357-7.5,7.5v26.717c0,4.143,3.357,7.5,7.5,7.5h19.791v19.792c0,4.142,3.357,7.5,7.5,7.5h26.717
		c4.143,0,7.5-3.358,7.5-7.5v-19.792H307.5c4.143,0,7.5-3.357,7.5-7.5v-26.717C315,140.249,311.643,136.892,307.5,136.892z"/>
	<path id="XMLID_512_" d="M101.906,104.16c9.088,0,17.823,2.45,25.274,7.087l8.513,5.825c2.967,2.03,6.958,1.671,9.514-0.861
		l24.828-24.596c1.589-1.574,2.392-3.774,2.191-6.001c-0.2-2.227-1.384-4.248-3.228-5.513l-14.43-9.896
		c-0.294-0.201-0.603-0.382-0.922-0.539l-13.979-6.902c-0.185-0.092-0.374-0.176-0.566-0.252
		c-12.042-4.754-24.729-7.165-37.708-7.165c-26.757,0-51.996,10.27-71.068,28.915c-19.367,18.934-30.137,44.681-30.323,72.499
		c-0.187,27.824,10.239,53.72,29.355,72.916c18.968,19.049,45.879,29.975,73.834,29.975c27.658,0,53.608-10.739,71.195-29.463
		c13.931-14.831,22.48-34.641,24.727-57.288c0.021-0.215,0.034-0.43,0.036-0.645l0.26-20.345c0.006-0.421-0.024-0.841-0.09-1.257
		l-1.09-6.953c-0.571-3.649-3.716-6.339-7.409-6.339h-86.672c-4.143,0-7.5,3.358-7.5,7.5v29.982c0,4.142,3.357,7.5,7.5,7.5h44.186
		c-2.025,4.439-5.216,9.12-9.251,13.482c-8.801,9.518-21.926,14.977-36.01,14.977c-14.383,0-28.157-5.636-37.79-15.462
		c-20.052-20.448-19.822-56.077,0.489-76.245C75.334,109.605,88.505,104.16,101.906,104.16z"/>
	</g>
	</symbol>	

	<symbol id="calendary" viewBox="0 0 512 512" xmlns="http://www.w3.org/2000/svg">
			<g>
		<path d="M452,40h-24V0h-40v40H124V0H84v40H60C26.916,40,0,66.916,0,100v352c0,33.084,26.916,60,60,60h392
			c33.084,0,60-26.916,60-60V100C512,66.916,485.084,40,452,40z M472,452c0,11.028-8.972,20-20,20H60c-11.028,0-20-8.972-20-20V188
			h432V452z M472,148H40v-48c0-11.028,8.972-20,20-20h24v40h40V80h264v40h40V80h24c11.028,0,20,8.972,20,20V148z"/>
	</g>
	</symbol>	

	<symbol id="compass" viewBox="0 0 490.667 490.667" xmlns="http://www.w3.org/2000/svg">
			<g>
				<path d="M245.333,0C110.059,0,0,110.059,0,245.333s110.059,245.333,245.333,245.333s245.333-110.059,245.333-245.333
			S380.608,0,245.333,0z M245.333,448c-111.744,0-202.667-90.923-202.667-202.667S133.589,42.667,245.333,42.667
			S448,133.589,448,245.333S357.077,448,245.333,448z"/>
		<path d="M359.552,131.136c-3.093-3.115-7.765-4.011-11.755-2.261l-149.333,64c-2.517,1.067-4.523,3.093-5.611,5.611l-64,149.333
			c-1.728,4.011-0.832,8.661,2.261,11.755c2.048,2.005,4.779,3.093,7.552,3.093c1.408,0,2.837-0.299,4.203-0.853l149.333-64
			c2.517-1.088,4.523-3.093,5.611-5.611l64-149.333C363.52,138.859,362.624,134.208,359.552,131.136z M245.333,266.667
			c-11.755,0-21.333-9.579-21.333-21.333c0-11.755,9.579-21.333,21.333-21.333c11.755,0,21.333,9.579,21.333,21.333
			C266.667,257.088,257.088,266.667,245.333,266.667z"/>

	</g>
	</symbol>	

	<symbol id="forum" viewBox="0 0 297.001 297.001" xmlns="http://www.w3.org/2000/svg">
			<g><path d="M265.469,87.982h-43.736V35.6c0-17.386-14.144-31.531-31.531-31.531H31.531C14.144,4.069,0,18.214,0,35.6v91.541
				c0,17.386,14.144,31.531,31.531,31.531h43.736v52.382c0,17.386,14.144,31.531,31.531,31.531h24.775l47.369,47.369
				c1.946,1.946,4.547,2.979,7.194,2.979c1.31,0,2.632-0.253,3.891-0.774c3.8-1.574,6.279-5.283,6.279-9.397v-40.176h69.164
				c17.386,0,31.531-14.144,31.531-31.531v-91.541C297,102.126,282.856,87.982,265.469,87.982z M31.531,138.329
				c-6.169,0-11.189-5.019-11.189-11.189V35.6c0-6.169,5.019-11.188,11.188-11.188h158.671c6.169,0,11.188,5.019,11.188,11.188
				v91.541c0,6.169-5.019,11.188-11.188,11.188H169.35c-2.698,0-5.284,1.072-7.192,2.979l-32.984,32.984v-25.791
				c0-5.617-4.554-10.171-10.171-10.171H31.531z M276.66,211.053h-0.002c0,6.169-5.019,11.188-11.188,11.188h-79.336
				c-5.617,0-10.171,4.554-10.171,10.171v25.792l-32.984-32.984c-1.908-1.907-4.495-2.979-7.192-2.979h-28.988
				c-6.169,0-11.188-5.019-11.188-11.188v-52.382h13.223v40.176c0,4.114,2.478,7.823,6.279,9.397
				c1.258,0.52,2.581,0.774,3.891,0.774c2.647,0,5.249-1.033,7.194-2.979l47.369-47.369h16.638
				c17.386,0,31.531-14.144,31.531-31.531v-18.817h43.736c6.169,0,11.188,5.019,11.188,11.188V211.053z"/>
			<path d="M43.736,55.943h134.26c4.494,0,8.137-3.643,8.137-8.137s-3.643-8.137-8.137-8.137H43.736
				c-4.494,0-8.137,3.643-8.137,8.137S39.243,55.943,43.736,55.943z"/>
			<path d="M43.736,89.508h134.26c4.494,0,8.137-3.643,8.137-8.137s-3.643-8.137-8.137-8.137H43.736
				c-4.494,0-8.137,3.643-8.137,8.137C35.599,85.863,39.243,89.508,43.736,89.508z"/>
			<path d="M110.866,106.798h-67.13c-4.494,0-8.137,3.643-8.137,8.137s3.643,8.137,8.137,8.137h67.13
				c4.494,0,8.137-3.643,8.137-8.137S115.36,106.798,110.866,106.798z"/>
			<path d="M177.997,106.798h-33.565c-4.494,0-8.137,3.643-8.137,8.137s3.643,8.137,8.137,8.137h33.565
				c4.494,0,8.137-3.643,8.137-8.137C186.134,110.441,182.49,106.798,177.997,106.798z"/>
			<path d="M253.264,173.928h-67.13c-4.494,0-8.137,3.643-8.137,8.137c0,4.494,3.643,8.137,8.137,8.137h67.13
				c4.494,0,8.137-3.643,8.137-8.137C261.401,177.572,257.757,173.928,253.264,173.928z"/></g>
	</symbol>	
	<symbol id="check" viewBox="0 -46 417.81333 417" xmlns="http://www.w3.org/2000/svg">
			<g><path d="m159.988281 318.582031c-3.988281 4.011719-9.429687 6.25-15.082031 6.25s-11.09375-2.238281-15.082031-6.25l-120.449219-120.46875c-12.5-12.5-12.5-32.769531 0-45.246093l15.082031-15.085938c12.503907-12.5 32.75-12.5 45.25 0l75.199219 75.203125 203.199219-203.203125c12.503906-12.5 32.769531-12.5 45.25 0l15.082031 15.085938c12.5 12.5 12.5 32.765624 0 45.246093zm0 0"/></g>
	</symbol>	
</svg>